<svg xmlns="http://www.w3.org/2000/svg" viewBox="0 0 520 360" fill="none">
  <g stroke="#d9ddda" stroke-width="1.3" opacity=".55">
    <path d="M-20 299C38 276 6 207 81 189c73-18 47-101 123-118 69-16 95 34 151 9 62-28 43-85 146-95"/>
    <path d="M-20 334C43 310 23 236 92 217c80-22 51-108 128-125 71-16 94 33 151 7 63-29 46-93 149-104"/>
    <path d="M-20 257C27 236 3 177 73 157c74-21 53-100 117-115 59-14 88 29 141 10 66-24 48-87 167-95"/>
    <path d="M-15 215C29 195 9 145 62 126c70-25 48-93 111-109 67-17 98 31 151 10 57-22 44-76 161-87"/>
    <path d="M28 358c48-33 17-83 76-101 69-21 57-93 118-109 74-19 99 30 155 3 57-27 35-70 127-102"/>
  </g>
  <path d="M34 350C63 298 91 277 107 231c25-70 76-68 106-118 27-45 53-73 96-87 50-16 87-44 133-115" stroke="#63ddd6" stroke-width="4" stroke-dasharray="11 14" opacity=".9"/>
</svg>
